<svg
        className="mt-auto wave"
        xmlns="http://www.w3.org/2000/svg"
        viewBox="0 0 1440 320"
      >
        <path
          fill="#F8F9FA"
          fill-opacity="1"
          d="M0,256L30,224C60,192,120,128,180,122.7C240,117,300,171,360,160C420,149,480,75,540,85.3C600,96,660,192,720,213.3C780,235,840,181,900,160C960,139,1020,149,1080,170.7C1140,192,1200,224,1260,229.3C1320,235,1380,213,1410,202.7L1440,192L1440,320L1410,320C1380,320,1320,320,1260,320C1200,320,1140,320,1080,320C1020,320,960,320,900,320C840,320,780,320,720,320C660,320,600,320,540,320C480,320,420,320,360,320C300,320,240,320,180,320C120,320,60,320,30,320L0,320Z"
        ></path>
      </svg>